<svg xmlns="http://www.w3.org/2000/svg" id="canvas" viewBox="621.786 238.203 219.628 226.332"><path d="M 631.40,242.30 C 630.72 243.57, 631.07 244.76, 630.96 248.34 C 630.85 251.91, 630.96 254.25, 630.85 260.17 C 630.73 266.10, 630.75 269.79, 630.39 277.95 C 630.02 286.12, 629.55 291.20, 629.01 300.99 C 628.47 310.79, 628.19 316.23, 627.69 326.91 C 627.20 337.58, 626.97 343.52, 626.54 354.36 C 626.11 365.20, 625.87 370.83, 625.54 381.10 C 625.20 391.36, 624.99 396.55, 624.88 405.69 C 624.76 414.83, 624.72 419.23, 624.97 426.79 C 625.21 434.35, 625.65 437.87, 626.09 443.48 C 626.54 449.08, 626.44 451.42, 627.20 454.81 C 627.95 458.19, 628.78 459.06, 629.86 460.41 C 630.93 461.75, 631.87 461.51, 632.58 461.53 C 633.29 461.55, 633.38 461.03, 633.42 460.50 C 633.46 459.98, 633.09 460.24, 632.79 458.90 C 632.48 457.56, 632.55 456.96, 631.89 453.80 C 631.23 450.63, 630.35 448.50, 629.51 443.08 C 628.67 437.65, 628.14 434.14, 627.68 426.66 C 627.22 419.19, 627.21 414.80, 627.21 405.70 C 627.21 396.61, 627.41 391.42, 627.70 381.16 C 627.99 370.91, 628.21 365.28, 628.66 354.45 C 629.11 343.62, 629.36 337.68, 629.94 327.02 C 630.52 316.36, 630.84 310.93, 631.56 301.16 C 632.29 291.39, 632.89 286.31, 633.58 278.16 C 634.26 270.00, 634.50 266.36, 635.00 260.39 C 635.51 254.43, 636.24 252.01, 636.11 248.32 C 635.98 244.64, 635.29 243.19, 634.35 241.99 C 633.41 240.78, 632.08 241.03, 631.40 242.30" style="stroke: white; fill: white;"/><path d="M 685.66,339.57 C 684.45 339.17, 683.31 339.03, 681.17 340.07 C 679.02 341.10, 677.66 342.28, 674.94 344.73 C 672.21 347.18, 670.70 348.93, 667.54 352.30 C 664.39 355.66, 662.58 357.77, 659.16 361.56 C 655.73 365.36, 653.73 367.28, 650.43 371.28 C 647.12 375.27, 645.21 377.22, 642.62 381.52 C 640.03 385.82, 638.78 388.25, 637.46 392.77 C 636.15 397.29, 635.70 399.68, 636.04 404.11 C 636.38 408.55, 637.05 410.86, 639.16 414.93 C 641.27 419.00, 642.99 421.13, 646.60 424.46 C 650.20 427.78, 652.42 429.15, 657.20 431.54 C 661.99 433.93, 664.59 435.06, 670.50 436.41 C 676.41 437.75, 680.55 438.01, 686.74 438.27 C 692.94 438.53, 696.48 438.17, 701.48 437.71 C 706.49 437.26, 709.79 436.92, 711.79 435.98 C 713.78 435.05, 713.56 433.51, 711.44 433.06 C 709.33 432.61, 706.12 433.50, 701.21 433.73 C 696.30 433.96, 692.88 434.44, 686.91 434.19 C 680.95 433.95, 676.95 433.78, 671.41 432.49 C 665.86 431.19, 663.49 430.01, 659.17 427.72 C 654.85 425.43, 652.94 424.04, 649.80 421.04 C 646.66 418.03, 645.26 416.15, 643.46 412.70 C 641.67 409.24, 641.14 407.47, 640.83 403.74 C 640.53 400.01, 640.83 398.04, 641.96 394.06 C 643.09 390.08, 644.10 387.82, 646.49 383.85 C 648.88 379.88, 650.65 377.98, 653.89 374.20 C 657.14 370.41, 659.17 368.47, 662.70 364.92 C 666.23 361.37, 668.19 359.40, 671.56 356.46 C 674.93 353.51, 676.83 352.37, 679.56 350.21 C 682.29 348.05, 683.68 347.28, 685.21 345.66 C 686.74 344.03, 687.14 343.28, 687.23 342.06 C 687.32 340.85, 686.87 339.97, 685.66 339.57" style="stroke: white; fill: white;"/><path d="M 791.84,339.09 C 790.75 339.04, 790.04 339.11, 788.61 340.46 C 787.17 341.81, 786.40 342.85, 784.65 345.83 C 782.90 348.81, 782.44 350.88, 779.87 355.37 C 777.29 359.86, 775.68 362.58, 771.79 368.28 C 767.91 373.99, 765.41 377.49, 760.45 383.88 C 755.49 390.27, 752.55 393.86, 747.01 400.23 C 741.46 406.60, 738.05 410.12, 732.73 415.73 C 727.42 421.34, 724.81 424.16, 720.42 428.27 C 716.02 432.37, 713.79 433.75, 710.76 436.26 C 707.73 438.78, 706.81 439.46, 705.25 440.83 C 703.69 442.19, 703.30 442.32, 702.97 443.07 C 702.65 443.83, 702.73 444.38, 703.64 444.60 C 704.54 444.82, 705.50 445.19, 707.49 444.18 C 709.48 443.18, 710.54 442.28, 713.60 439.59 C 716.66 436.89, 718.53 435.06, 722.79 430.69 C 727.05 426.33, 729.61 423.46, 734.89 417.75 C 740.17 412.03, 743.57 408.51, 749.17 402.12 C 754.77 395.73, 757.75 392.14, 762.88 385.81 C 768.00 379.47, 770.58 376.00, 774.81 370.46 C 779.03 364.92, 780.84 362.27, 784.00 358.11 C 787.16 353.95, 788.63 352.48, 790.61 349.66 C 792.59 346.85, 793.21 345.84, 793.90 344.05 C 794.59 342.25, 794.47 341.68, 794.06 340.69 C 793.65 339.69, 792.93 339.14, 791.84 339.09" style="stroke: white; fill: white;"/><path d="M 729.90,357.29 C 729.97 358.25, 730.01 358.63, 731.24 359.77 C 732.46 360.92, 733.12 361.54, 736.05 363.02 C 738.97 364.51, 741.53 364.98, 745.85 367.20 C 750.16 369.43, 752.50 370.95, 757.61 374.13 C 762.72 377.32, 765.91 379.27, 771.39 383.12 C 776.86 386.97, 779.75 389.18, 784.97 393.36 C 790.19 397.55, 792.74 399.77, 797.48 404.03 C 802.22 408.28, 804.33 410.54, 808.67 414.63 C 813.01 418.73, 815.56 420.98, 819.20 424.50 C 822.84 428.03, 824.16 429.87, 826.87 432.26 C 829.58 434.65, 830.77 435.43, 832.75 436.47 C 834.73 437.50, 835.68 437.42, 836.75 437.43 C 837.83 437.44, 837.83 436.83, 838.12 436.51 C 838.41 436.19, 838.18 436.17, 838.20 435.81 C 838.22 435.45, 838.67 435.55, 838.20 434.73 C 837.73 433.91, 837.46 433.04, 835.87 431.72 C 834.27 430.41, 832.98 430.23, 830.22 428.16 C 827.46 426.09, 825.87 424.61, 822.05 421.36 C 818.24 418.12, 815.60 415.91, 811.14 411.94 C 806.68 407.96, 804.55 405.74, 799.74 401.49 C 794.94 397.24, 792.37 394.96, 787.12 390.70 C 781.88 386.43, 778.95 384.19, 773.51 380.17 C 768.08 376.15, 764.92 374.14, 759.96 370.61 C 755.01 367.07, 752.78 365.38, 748.72 362.49 C 744.66 359.61, 742.66 357.79, 739.66 356.16 C 736.67 354.53, 735.50 354.58, 733.76 354.34 C 732.01 354.11, 731.70 354.39, 730.93 354.98 C 730.16 355.57, 729.84 356.33, 729.90 357.29" style="stroke: white; fill: white;"/></svg>